<svg xmlns="http://www.w3.org/2000/svg" viewBox="0 0 120 120" role="img" aria-label="Ibratech Innovations">
  <defs>
    <linearGradient id="ib" x1="0%" y1="0%" x2="100%" y2="100%">
      <stop offset="0%" stop-color="#22d3ee"/>
      <stop offset="50%" stop-color="#38bdf8"/>
      <stop offset="100%" stop-color="#67e8f9"/>
    </linearGradient>
  </defs>
  <circle cx="60" cy="60" r="58" fill="#1c1410"/>
  <g fill="url(#ib)">
    <rect x="34" y="36" width="7" height="22" rx="1.5"/>
    <rect x="45" y="32" width="7" height="26" rx="1.5"/>
    <rect x="56" y="28" width="7" height="30" rx="1.5"/>
    <path d="M66 24c18 0 28 12 28 28s-10 28-28 28V24z" opacity=".95"/>
    <path d="M30 58c8-10 18-14 30-14 4 0 8 1 12 2-6 8-14 12-24 12H30z" opacity=".85"/>
    <path d="M28 52c-2 8-2 16 0 24 6-8 14-12 24-12 2 0 4 0 6 1-8-10-18-14-30-13z"/>
  </g>
  <g fill="none" stroke="url(#ib)" stroke-width="2.2" stroke-linecap="round">
    <path d="M34 78c10 8 22 10 34 4"/>
    <path d="M86 78c-10 8-22 10-34 4"/>
  </g>
</svg>
